<?xml version="1.0" standalone="no"?>
<!DOCTYPE svg PUBLIC "-//W3C//DTD SVG 20010904//EN"
 "http://www.w3.org/TR/2001/REC-SVG-20010904/DTD/svg10.dtd">
<svg version="1.0" xmlns="http://www.w3.org/2000/svg"
 width="1000.000000pt" height="576.000000pt" viewBox="0 0 1000.000000 576.000000"
 preserveAspectRatio="xMidYMid meet">

<g transform="translate(0.000000,576.000000) scale(0.100000,-0.100000)"
fill="#000000" stroke="none">
<path d="M4894 5740 c-33 -13 -54 -50 -54 -94 0 -31 7 -45 34 -71 l34 -32 -40
-169 c-22 -93 -42 -171 -44 -173 -2 -2 -32 23 -66 55 -35 33 -80 73 -101 88
-33 25 -37 32 -32 60 13 66 -35 121 -103 119 -28 -1 -43 -9 -65 -33 -25 -28
-28 -39 -24 -74 4 -28 15 -49 33 -65 24 -20 35 -23 80 -18 l52 5 51 -101 c49
-99 91 -231 91 -289 l0 -28 194 0 193 0 6 58 c8 75 46 184 98 282 l42 79 48
-6 c57 -7 89 10 109 57 27 65 -24 135 -97 133 -29 -1 -44 -9 -66 -34 -25 -27
-29 -38 -24 -74 4 -41 2 -44 -42 -78 -25 -20 -71 -61 -101 -92 l-55 -55 -42
176 -43 176 35 32 c55 52 48 129 -15 161 -32 17 -54 18 -86 5z"/>
<path d="M4577 4916 c-78 -29 -117 -85 -117 -172 0 -53 -3 -60 -41 -101 -22
-24 -49 -63 -60 -86 -20 -46 -25 -130 -9 -172 6 -15 7 -25 3 -23 -5 2 -39 19
-78 39 -98 51 -170 73 -240 72 -133 0 -205 -91 -192 -241 7 -73 58 -232 115
-354 23 -49 37 -88 34 -88 -4 0 -34 26 -65 58 -55 55 -57 60 -47 87 31 82 -53
158 -133 120 -63 -30 -77 -107 -27 -157 25 -24 37 -29 70 -27 37 3 45 -1 103
-57 34 -33 77 -73 95 -87 19 -15 31 -27 28 -27 -11 0 -159 61 -208 86 -28 14
-75 42 -104 61 -46 30 -52 38 -44 57 21 57 -31 126 -97 126 -25 0 -43 -8 -64
-29 -75 -76 1 -197 102 -162 28 9 36 7 76 -20 66 -46 234 -123 351 -163 57
-19 106 -37 110 -41 8 -8 -93 1 -230 21 -54 8 -100 14 -103 14 -3 0 -5 11 -5
24 0 14 -12 38 -26 55 -50 59 -150 33 -170 -43 -8 -32 12 -82 40 -101 29 -21
89 -19 118 4 22 18 32 19 89 11 35 -5 165 -19 289 -30 124 -11 259 -24 300
-29 41 -6 170 -16 287 -22 226 -13 496 -4 740 26 65 8 181 19 258 25 77 6 190
18 250 25 105 13 111 13 131 -6 23 -21 83 -26 116 -8 32 17 51 74 38 115 -15
44 -45 64 -96 64 -35 0 -47 -5 -68 -31 -14 -17 -26 -41 -26 -53 0 -21 -7 -24
-72 -35 -126 -19 -259 -33 -265 -27 -3 3 0 7 8 10 150 43 351 130 447 193 48
32 55 34 82 23 83 -34 164 51 125 133 -30 64 -107 77 -157 27 -27 -27 -30 -36
-26 -74 l5 -44 -65 -42 c-61 -40 -225 -118 -282 -134 -22 -7 -21 -4 10 20 19
16 62 54 96 86 52 49 66 58 98 58 48 0 72 13 91 50 22 43 18 76 -14 112 -24
27 -36 33 -71 33 -35 0 -47 -6 -71 -33 -30 -33 -37 -69 -19 -103 9 -16 3 -27
-37 -70 -81 -86 -87 -81 -37 32 127 286 143 440 55 528 -81 81 -193 75 -383
-20 l-77 -39 11 31 c14 40 6 125 -16 171 -10 21 -35 57 -56 80 -34 39 -38 50
-42 109 -4 75 -34 126 -91 155 -41 22 -123 22 -164 0 -44 -22 -394 -24 -439
-2 -46 23 -96 27 -137 12z m139 -80 c28 -28 34 -42 34 -75 0 -23 -7 -55 -15
-70 -15 -31 -69 -61 -107 -61 -53 0 -118 66 -118 120 0 35 31 90 59 105 14 8
46 14 70 15 36 0 49 -6 77 -34z m580 18 c33 -22 54 -64 54 -109 0 -26 -9 -45
-34 -73 -31 -34 -39 -37 -86 -37 -47 0 -55 3 -87 39 -33 36 -35 42 -30 89 6
69 46 107 113 107 25 0 56 -7 70 -16z m-336 -366 c15 -18 56 -31 236 -69 121
-26 210 -47 199 -48 -11 0 -119 12 -240 28 l-219 28 -226 -28 c-124 -16 -231
-28 -239 -27 -8 2 84 23 203 48 179 36 220 48 238 67 26 28 26 28 48 1z m-517
-125 c-7 -2 -19 -2 -25 0 -7 3 -2 5 12 5 14 0 19 -2 13 -5z m1010 0 c-7 -2
-19 -2 -25 0 -7 3 -2 5 12 5 14 0 19 -2 13 -5z m-258 -188 c157 -46 257 -121
312 -233 25 -50 28 -68 27 -147 0 -64 -6 -104 -20 -140 -19 -49 -21 -50 -69
-57 -217 -30 -631 -36 -890 -13 -88 8 -165 15 -172 15 -6 0 -22 26 -34 58 -33
85 -31 198 3 273 62 136 199 225 406 264 120 23 323 14 437 -20z"/>
<path d="M4600 4803 c-8 -3 -28 -15 -44 -26 l-29 -21 34 -28 c41 -34 88 -37
136 -7 40 25 39 36 -7 67 -32 21 -60 26 -90 15z"/>
<path d="M5174 4791 c-46 -28 -48 -36 -13 -65 43 -37 98 -36 141 2 l31 29 -39
26 c-46 32 -78 34 -120 8z"/>
<path d="M2660 4053 c-74 -27 -157 -119 -222 -248 -30 -60 -68 -144 -83 -185
-15 -41 -31 -79 -35 -83 -11 -13 -49 40 -61 86 -14 53 -4 113 27 160 l24 37
-37 0 c-53 0 -120 -36 -150 -81 -70 -106 -17 -240 121 -305 20 -10 36 -21 36
-25 0 -21 -146 -442 -174 -504 l-34 -73 -58 14 c-211 49 -344 13 -344 -93 0
-52 16 -87 62 -130 90 -87 233 -88 346 -2 l50 38 119 -51 c396 -168 521 -157
622 55 l38 79 12 -30 c18 -42 69 -92 117 -113 129 -58 319 -16 465 104 l57 45
23 -36 c37 -55 71 -75 138 -80 73 -5 146 25 215 88 l45 42 -22 -69 -23 -68
-112 -55 c-124 -61 -156 -87 -183 -145 -56 -121 14 -231 143 -223 122 8 214
102 272 274 l36 109 54 28 c29 15 81 50 115 78 66 53 71 56 71 36 0 -29 63
-97 113 -121 124 -61 285 -37 433 65 l42 28 18 -21 c24 -26 75 -48 113 -48 26
0 35 9 78 77 105 170 220 310 277 340 56 29 88 34 114 17 22 -14 24 -21 18
-61 -3 -25 -16 -78 -27 -117 -50 -167 -5 -255 135 -264 74 -5 129 15 189 68
21 18 39 31 41 29 1 -2 12 -21 25 -41 13 -22 39 -45 65 -57 101 -49 208 -10
343 126 l83 84 0 -52 c0 -68 30 -130 73 -154 25 -13 49 -17 98 -13 75 4 138
32 202 89 l45 39 24 -42 c32 -59 95 -104 165 -119 125 -26 302 28 410 125 l49
45 12 -32 c17 -47 68 -105 115 -130 35 -19 58 -22 142 -22 92 0 104 3 155 30
31 17 69 49 88 75 20 25 48 49 67 56 87 30 160 101 208 202 l30 65 -22 19
c-30 23 -36 23 -48 -4 -27 -60 -144 -186 -173 -188 -3 0 -6 33 -7 74 -1 58
-12 105 -53 230 -42 125 -51 167 -50 213 3 76 3 79 -16 97 -24 25 -70 20 -104
-11 -25 -23 -33 -42 -44 -101 -9 -45 -26 -92 -46 -126 -45 -75 -130 -171 -150
-171 -26 -1 -87 -66 -109 -117 -24 -57 -119 -139 -209 -181 -69 -32 -159 -40
-201 -18 -26 14 -51 67 -51 109 0 27 3 29 76 46 152 36 310 139 371 243 19 32
27 63 30 111 5 78 -7 106 -57 140 -31 21 -43 23 -115 20 -62 -3 -92 -11 -135
-32 -79 -39 -155 -101 -212 -171 -54 -66 -124 -197 -134 -250 -11 -63 -143
-175 -205 -175 -21 0 -22 2 -16 103 10 183 61 324 284 794 149 315 161 356
120 397 -50 50 -112 22 -181 -82 -45 -68 -158 -311 -236 -505 -40 -101 -44
-107 -60 -92 -50 45 -156 39 -270 -17 -48 -23 -90 -57 -160 -127 -96 -97 -143
-165 -184 -263 -53 -132 -179 -253 -223 -216 -20 16 -13 57 27 161 41 106 44
194 9 257 -35 64 -68 83 -144 88 -58 4 -73 1 -128 -26 -34 -17 -92 -58 -128
-91 l-67 -60 2 55 c1 47 -3 59 -23 75 -32 26 -86 24 -138 -6 -37 -23 -43 -30
-43 -60 0 -51 -20 -135 -42 -179 -29 -58 -164 -186 -228 -218 -55 -28 -148
-51 -172 -44 -7 3 -26 7 -41 11 -31 6 -66 68 -67 117 0 23 5 27 43 33 173 29
356 149 413 270 34 72 33 162 -1 203 -36 43 -74 55 -158 50 -58 -4 -86 -12
-137 -39 -82 -43 -198 -152 -251 -236 -42 -68 -89 -179 -89 -213 0 -27 -48
-79 -119 -129 -34 -23 -61 -41 -61 -38 0 2 12 37 26 78 45 132 94 321 94 366
0 36 -3 43 -19 43 -18 0 -19 3 -10 29 26 73 -58 130 -172 117 -220 -25 -449
-217 -499 -418 -22 -86 -171 -207 -289 -234 -101 -24 -160 0 -180 73 -18 63
-15 71 31 78 125 21 259 88 344 171 69 67 98 129 98 209 1 107 -52 150 -178
143 -167 -8 -347 -159 -449 -376 -26 -56 -32 -82 -35 -161 l-4 -93 -57 -27
c-51 -23 -67 -26 -166 -25 -110 1 -166 12 -377 75 l-67 19 49 98 c47 93 122
280 169 425 20 60 25 67 49 67 51 1 167 30 220 56 141 69 251 225 260 368 6
99 -3 139 -40 182 -64 73 -183 102 -278 67z m146 -129 c22 -89 -49 -257 -148
-350 -57 -52 -131 -94 -144 -81 -3 2 14 56 37 118 91 247 149 339 215 339 28
0 35 -4 40 -26z m3677 -676 c8 -12 0 -38 -36 -112 -121 -250 -307 -433 -367
-361 -19 22 -7 109 25 185 55 131 154 252 238 291 51 23 125 22 140 -3z
m-3063 -14 c0 -67 -99 -178 -209 -233 -90 -46 -100 -39 -54 37 75 123 182 222
240 222 18 0 23 -6 23 -26z m1420 1 c0 -68 -100 -178 -211 -234 -90 -45 -96
-42 -59 28 79 149 270 294 270 206z m2487 -10 c-12 -73 -98 -165 -211 -224
-58 -31 -86 -38 -86 -23 0 21 81 138 130 188 59 60 111 93 149 94 21 0 23 -3
18 -35z m-3193 -1 c12 -5 9 -12 -18 -38 -26 -24 -40 -52 -60 -118 -24 -78 -33
-94 -94 -159 -114 -123 -185 -159 -213 -108 -39 74 87 306 208 380 66 41 137
58 177 43z m3675 -198 c12 -57 21 -127 19 -155 l-3 -52 -52 26 c-28 14 -68 44
-87 65 l-35 39 55 78 c31 43 59 84 61 91 12 28 22 6 42 -92z m-99 -263 c19
-12 47 -25 63 -28 22 -6 25 -10 16 -21 -6 -8 -28 -19 -48 -25 -77 -23 -151 45
-151 137 l0 37 43 -39 c23 -22 58 -49 77 -61z m-5788 -29 c32 -9 58 -20 58
-23 0 -16 -62 -41 -100 -41 -68 0 -125 41 -97 69 16 16 71 14 139 -5z m1991
-245 c-34 -62 -122 -159 -145 -159 -39 0 -24 74 23 116 28 26 131 93 142 93 5
1 -4 -22 -20 -50z"/>
<path d="M3375 3766 c-55 -25 -155 -147 -170 -209 -8 -30 17 -82 45 -97 17 -9
25 -5 52 27 17 21 67 72 110 113 88 84 97 112 53 155 -27 28 -47 30 -90 11z"/>
<path d="M663 2771 c-39 -24 -76 -86 -99 -166 -57 -199 87 -552 281 -685 l41
-28 -47 94 c-76 152 -96 283 -64 432 23 111 36 238 29 283 -13 81 -74 110
-141 70z"/>
<path d="M9229 2764 c-22 -24 -24 -33 -23 -122 0 -59 9 -142 23 -212 17 -85
21 -132 17 -182 -7 -83 -45 -203 -90 -285 -19 -35 -31 -63 -27 -63 3 0 31 20
62 44 195 153 315 506 239 701 -48 124 -143 180 -201 119z"/>
<path d="M952 2551 c-50 -37 -98 -130 -112 -218 -15 -89 12 -247 54 -322 12
-21 13 -14 19 70 7 121 34 195 101 284 67 88 76 105 76 149 0 68 -69 86 -138
37z"/>
<path d="M8934 2557 c-40 -34 -28 -77 52 -183 74 -100 100 -170 112 -304 l7
-85 30 85 c26 75 30 98 30 195 0 100 -3 116 -28 170 -31 65 -67 109 -109 131
-38 20 -63 17 -94 -9z"/>
<path d="M1725 2500 c-37 -40 18 -105 60 -70 22 18 19 67 -4 80 -27 14 -35 13
-56 -10z"/>
<path d="M5630 2439 c-80 -43 -150 -82 -157 -86 -13 -9 21 -109 41 -116 16 -6
318 82 334 97 11 11 8 27 -20 94 -18 45 -38 84 -43 86 -6 2 -76 -32 -155 -75z"/>
<path d="M8222 2504 c-27 -18 -28 -45 -4 -67 24 -22 45 -21 65 1 22 24 21 38
-3 62 -24 24 -29 24 -58 4z"/>
<path d="M1310 2427 c-135 -46 -249 -139 -298 -244 -24 -52 -27 -69 -26 -168
0 -97 3 -118 29 -178 92 -223 324 -332 603 -283 305 53 577 271 756 606 l43
81 7 -83 c9 -114 9 -715 1 -809 l-7 -76 62 -6 c124 -13 442 -8 505 8 198 51
324 185 370 398 26 116 17 318 -17 408 -47 126 -123 203 -247 250 -77 29 -157
34 -433 31 l-237 -3 -47 -77 c-152 -246 -327 -423 -495 -502 -107 -50 -179
-63 -304 -57 -126 5 -196 27 -269 83 -154 118 -146 361 16 453 29 17 63 31 75
31 l22 0 -21 -46 c-30 -70 -23 -168 18 -226 49 -71 103 -102 184 -106 117 -7
208 51 246 155 41 116 -6 226 -134 315 -103 71 -271 90 -402 45z m1625 -288
c56 -16 109 -73 129 -139 23 -77 31 -230 17 -316 -16 -94 -58 -167 -114 -196
-37 -20 -55 -22 -151 -21 -60 1 -113 6 -117 10 -9 10 -11 66 -10 400 l1 262
23 4 c46 9 184 6 222 -4z"/>
<path d="M1860 2430 c-30 -30 -27 -83 6 -109 35 -28 69 -26 99 4 30 30 32 64
4 99 -26 33 -79 36 -109 6z"/>
<path d="M8040 2430 c-30 -30 -27 -83 6 -109 15 -12 38 -21 51 -21 33 0 73 42
73 78 0 61 -86 96 -130 52z"/>
<path d="M8403 2436 c-95 -31 -194 -108 -230 -179 -21 -43 -24 -61 -21 -123 3
-61 8 -79 33 -116 17 -23 50 -56 74 -73 37 -26 53 -30 119 -33 72 -3 80 -1
132 30 36 22 64 49 85 82 26 43 30 59 30 120 0 53 -5 81 -22 112 l-21 42 31
-8 c47 -10 88 -34 123 -72 56 -59 69 -94 69 -188 0 -101 -18 -143 -89 -208
-231 -213 -679 -83 -1037 300 -169 181 -323 244 -501 207 -127 -27 -220 -94
-270 -196 -27 -56 -32 -77 -32 -137 0 -139 65 -215 270 -316 160 -80 184 -99
184 -151 0 -78 -72 -113 -185 -90 -61 13 -153 54 -206 92 -16 11 -36 19 -43
16 -8 -3 -21 -53 -33 -129 -11 -67 -20 -124 -19 -125 1 -1 42 -14 91 -28 107
-32 271 -44 356 -26 184 39 299 157 307 318 5 83 -7 127 -49 179 -42 54 -89
85 -237 159 -72 36 -140 78 -152 92 -28 35 -25 75 6 106 36 37 86 44 163 24
73 -20 152 -73 309 -211 239 -210 463 -335 682 -382 88 -19 247 -18 324 2 187
48 321 190 372 394 52 208 -61 403 -289 498 -51 20 -82 26 -172 28 -75 3 -123
-1 -152 -10z"/>
<path d="M4364 2273 c10 -114 11 -911 2 -960 l-8 -43 137 0 137 0 -4 175 -3
175 70 0 70 0 90 -176 c73 -143 94 -176 115 -181 26 -7 197 19 243 36 15 6 27
16 27 24 0 7 -20 41 -46 76 -25 34 -80 114 -124 178 l-79 116 65 62 c41 40 74
83 91 121 25 52 28 70 28 159 -1 88 -4 106 -27 151 -31 59 -83 108 -147 138
-43 20 -66 21 -345 24 l-298 3 6 -78z m453 -132 c55 -26 77 -68 77 -147 0 -71
-23 -117 -74 -151 -27 -19 -47 -23 -111 -23 l-79 0 0 139 c0 76 3 153 6 170
l7 31 66 0 c43 0 80 -7 108 -19z"/>
<path d="M215 2285 c-31 -30 -31 -34 -2 -76 18 -28 36 -38 97 -57 136 -43 240
-85 307 -124 36 -21 68 -37 70 -35 8 9 -100 147 -160 205 -82 78 -151 112
-230 112 -48 0 -62 -4 -82 -25z"/>
<path d="M9616 2294 c-92 -34 -216 -158 -300 -302 -4 -7 15 1 42 18 78 48 191
97 288 125 124 36 163 64 164 117 0 39 -33 58 -100 57 -30 0 -73 -7 -94 -15z"/>
<path d="M1982 2275 c-77 -65 -33 -175 68 -175 46 0 90 47 90 95 0 47 -13 71
-50 90 -42 22 -74 19 -108 -10z"/>
<path d="M7925 2291 c-37 -16 -60 -51 -60 -93 0 -53 47 -98 101 -98 80 0 125
103 72 165 -25 28 -79 41 -113 26z"/>
<path d="M5325 1705 l0 -445 311 0 311 0 8 101 c4 55 4 103 1 106 -3 3 -86 5
-184 4 l-179 -2 -7 41 c-3 22 -3 52 0 67 l7 26 137 -6 137 -6 7 61 c3 33 6 83
6 109 l0 49 -145 0 -145 0 0 60 0 60 183 2 182 3 8 85 c4 47 5 95 2 108 l-5
22 -318 0 -318 0 1 -445z"/>
<path d="M6123 1705 l2 -445 310 2 310 3 7 85 c12 136 29 125 -184 125 l-183
0 -3 64 -3 64 144 -6 145 -6 7 99 c4 54 4 103 0 109 -4 7 -57 11 -146 11
l-139 0 0 60 0 60 180 0 179 0 5 33 c14 94 17 159 5 173 -9 12 -66 14 -324 14
l-313 0 1 -445z"/>
<path d="M3748 2106 c-182 -52 -278 -205 -278 -441 0 -236 91 -371 279 -415
74 -17 211 -8 283 20 167 63 259 241 245 474 -10 169 -73 278 -194 338 -63 31
-75 33 -178 35 -69 1 -128 -3 -157 -11z m213 -225 c30 -37 39 -88 39 -226 0
-154 -13 -192 -70 -212 -37 -13 -103 -8 -132 11 -38 23 -53 92 -53 236 0 109
4 141 18 167 24 46 44 54 116 50 52 -2 67 -7 82 -26z"/>
<path d="M311 1960 c-149 -32 -278 -168 -296 -314 -9 -68 15 -164 57 -229 109
-169 381 -232 498 -115 62 61 86 139 69 218 -15 68 -57 122 -120 154 -117 58
-248 14 -309 -104 l-18 -35 -21 45 c-26 57 -26 95 -1 144 34 67 89 94 193 95
44 1 90 -6 130 -20 119 -39 354 -175 492 -283 141 -111 335 -170 555 -170 150
0 217 15 345 79 101 50 183 117 252 208 l47 62 -54 -49 c-168 -149 -372 -236
-554 -236 -209 1 -416 96 -667 308 -165 139 -183 153 -229 176 -107 56 -274
86 -369 66z"/>
<path d="M9545 1963 c-144 -22 -244 -72 -380 -189 -161 -138 -263 -210 -380
-269 -244 -123 -451 -127 -677 -15 -84 42 -192 114 -218 145 -7 9 -22 21 -34
27 -32 17 34 -61 115 -135 79 -74 196 -137 304 -164 112 -28 313 -23 440 11
115 30 231 82 290 130 123 101 387 254 512 297 124 42 260 16 310 -60 29 -43
30 -121 4 -170 l-18 -35 -18 38 c-34 72 -122 126 -205 126 -154 0 -267 -158
-216 -303 55 -154 229 -200 413 -110 73 36 155 125 183 200 30 80 25 196 -13
269 -60 118 -183 200 -312 208 -38 2 -83 2 -100 -1z"/>
<path d="M7676 1780 c20 -201 63 -354 120 -433 79 -109 214 -109 214 1 0 28
-7 41 -36 66 -96 82 -182 196 -255 336 -46 89 -49 91 -43 30z"/>
<path d="M2287 1751 c-73 -135 -152 -245 -219 -304 -37 -32 -69 -69 -73 -84
-10 -41 12 -81 51 -92 129 -36 235 127 274 423 18 130 12 140 -33 57z"/>
<path d="M790 1519 c-60 -24 -81 -77 -60 -153 40 -143 203 -165 387 -54 l52
32 -64 27 c-58 25 -96 48 -205 123 -43 29 -77 37 -110 25z"/>
<path d="M9150 1516 c-19 -6 -57 -29 -85 -51 -27 -21 -90 -57 -138 -80 l-88
-42 48 -31 c188 -119 375 -83 391 77 6 64 -3 97 -31 115 -36 23 -60 26 -97 12z"/>
<path d="M60 1028 c-86 -58 -49 -178 54 -178 40 0 49 4 73 35 l28 35 4788 0
4788 0 33 -35 c27 -28 41 -35 70 -35 48 0 72 13 92 52 30 57 -3 127 -68 143
-34 9 -92 -18 -106 -50 l-12 -25 -4793 0 -4794 0 -14 27 c-13 25 -62 53 -92
53 -8 0 -29 -10 -47 -22z"/>
<path d="M2542 737 c-39 -39 -41 -45 -28 -62 14 -20 15 -19 45 9 l31 30 30
-29 c28 -27 32 -28 47 -13 14 15 13 20 -23 62 -22 25 -44 45 -49 46 -6 0 -30
-19 -53 -43z"/>
<path d="M4497 716 c-49 -18 -64 -32 -88 -77 -28 -56 -26 -171 4 -223 39 -68
116 -92 208 -64 35 10 39 15 39 43 0 41 -7 47 -35 29 -33 -21 -101 -21 -125 1
-47 42 -49 167 -5 211 29 28 89 32 123 8 27 -19 38 -13 44 25 3 24 0 32 -20
41 -41 18 -105 21 -145 6z"/>
<path d="M7517 716 c-49 -18 -62 -30 -86 -80 -28 -57 -28 -154 -1 -211 35 -73
130 -105 219 -74 27 9 31 16 31 45 0 39 0 39 -57 19 -83 -29 -133 16 -133 120
0 59 19 109 45 119 29 11 75 7 106 -9 32 -17 36 -13 41 35 3 20 -3 27 -32 37
-46 16 -86 15 -133 -1z"/>
<path d="M325 708 c-3 -7 -34 -93 -69 -190 l-63 -178 38 0 c37 0 39 1 50 45
11 42 13 44 54 51 69 10 98 -5 109 -54 9 -40 11 -42 48 -42 21 0 38 3 38 8 0
4 -26 88 -58 187 l-58 180 -42 3 c-28 2 -44 -1 -47 -10z m61 -130 c9 -29 19
-59 22 -65 3 -9 -9 -13 -43 -13 -33 0 -45 4 -42 13 3 6 14 36 23 65 10 28 19
52 20 52 1 0 10 -24 20 -52z"/>
<path d="M2210 530 l0 -190 39 0 39 0 -6 65 -5 65 53 0 c48 0 56 4 91 39 36
36 39 43 39 96 0 49 -4 60 -29 86 -28 28 -33 29 -125 29 l-96 0 0 -190z m166
105 c31 -47 -3 -105 -62 -105 -33 0 -34 1 -34 43 0 72 8 87 46 87 25 0 38 -7
50 -25z"/>
<path d="M1283 636 c-39 -18 -55 -46 -51 -94 3 -37 16 -50 97 -94 21 -11 29
-22 25 -32 -8 -21 -63 -21 -92 0 -28 19 -42 11 -42 -27 0 -35 27 -49 97 -49
38 0 50 5 80 35 30 30 34 40 29 67 -8 42 -19 53 -77 79 -33 15 -49 29 -49 41
0 27 27 33 66 14 19 -9 36 -16 39 -16 9 0 16 63 8 71 -17 17 -97 20 -130 5z"/>
<path d="M3205 642 c-33 -11 -51 -26 -64 -49 -28 -53 -6 -91 77 -132 29 -15
42 -27 40 -39 -4 -23 -53 -27 -83 -8 -34 23 -42 20 -49 -16 -8 -41 0 -48 66
-55 86 -9 138 27 138 95 0 33 -26 60 -87 91 -24 12 -43 28 -43 36 0 23 47 30
75 11 14 -9 30 -14 35 -11 12 8 13 62 2 69 -16 10 -87 15 -107 8z"/>
<path d="M3435 637 c-41 -19 -57 -40 -58 -81 -1 -41 14 -61 67 -88 60 -30 68
-38 55 -54 -15 -18 -60 -18 -85 1 -31 24 -44 18 -44 -20 0 -29 5 -37 28 -46
42 -16 119 -6 146 21 55 51 37 112 -43 149 -55 26 -67 43 -45 62 15 13 21 12
85 -15 13 -6 18 0 23 25 3 18 3 36 -2 41 -15 15 -97 19 -127 5z"/>
<path d="M5101 637 c-80 -29 -111 -147 -64 -239 27 -55 119 -75 190 -41 85 40
99 216 21 267 -33 22 -106 28 -147 13z m107 -71 c29 -29 27 -119 -4 -150 -24
-24 -80 -20 -98 6 -19 27 -21 118 -3 140 23 30 76 32 105 4z"/>
<path d="M5426 640 c-59 -18 -96 -76 -96 -150 0 -90 55 -150 137 -150 67 0 93
14 93 51 0 28 -3 31 -22 25 -91 -27 -127 -10 -134 64 -9 83 36 120 110 95 39
-14 40 -13 50 27 6 25 3 28 -31 37 -44 13 -67 13 -107 1z"/>
<path d="M5670 633 c-53 -28 -80 -75 -80 -143 0 -96 50 -150 140 -150 55 0
103 27 125 71 20 39 22 126 4 164 -32 65 -122 93 -189 58z m93 -54 c32 -17 37
-28 37 -86 0 -61 -23 -93 -67 -93 -48 0 -73 33 -73 95 0 45 15 73 43 85 30 12
35 12 60 -1z"/>
<path d="M7783 631 c-24 -11 -48 -32 -57 -50 -22 -41 -21 -144 1 -182 49 -83
202 -76 245 11 37 73 15 189 -41 219 -40 22 -104 23 -148 2z m117 -67 c10 -10
15 -35 15 -75 0 -68 -16 -89 -67 -89 -45 0 -68 31 -68 93 0 28 4 57 8 63 23
35 81 39 112 8z"/>
<path d="M8804 636 c-17 -8 -39 -24 -48 -37 -34 -50 -12 -95 65 -135 35 -17
49 -30 47 -42 -4 -23 -53 -28 -83 -8 -35 23 -42 20 -47 -19 -4 -32 -1 -36 30
-46 83 -27 172 12 172 77 0 51 -9 63 -72 95 -59 30 -67 43 -35 63 11 7 26 6
51 -7 38 -17 40 -16 50 25 6 25 3 28 -31 37 -48 14 -61 13 -99 -3z"/>
<path d="M570 490 l0 -150 35 0 35 0 0 50 c0 69 26 68 69 -1 30 -48 34 -51 63
-45 17 3 34 8 36 11 2 2 -13 28 -34 56 -25 34 -34 54 -26 57 19 6 42 57 42 92
0 19 -9 40 -25 55 -22 23 -32 25 -110 25 l-85 0 0 -150z m144 74 c3 -9 6 -19
6 -24 0 -17 -32 -40 -56 -40 -21 0 -24 4 -24 40 0 39 1 40 34 40 22 0 36 -6
40 -16z"/>
<path d="M810 610 c0 -28 2 -30 40 -30 l40 0 0 -120 0 -120 35 0 35 0 0 120 0
120 40 0 c38 0 40 2 40 30 l0 30 -115 0 -115 0 0 -30z"/>
<path d="M1090 490 l0 -150 35 0 35 0 0 150 0 150 -35 0 -35 0 0 -150z"/>
<path d="M1502 497 c-29 -78 -52 -145 -52 -149 0 -5 15 -8 34 -8 31 0 34 3 40
35 l7 35 58 0 59 0 6 -35 c6 -32 10 -35 41 -35 19 0 35 3 35 7 0 4 -21 72 -47
150 l-47 143 -41 0 -40 0 -53 -143z m117 -14 c1 -8 -11 -13 -30 -13 -26 0 -30
3 -24 18 4 9 12 30 18 47 l10 29 13 -34 c7 -19 13 -41 13 -47z"/>
<path d="M1780 490 l0 -150 30 0 29 0 3 93 3 92 63 -92 c59 -87 65 -93 97 -93
l35 0 0 150 0 150 -35 0 -35 0 0 -87 0 -88 -58 87 c-55 84 -58 88 -94 88 l-38
0 0 -150z"/>
<path d="M2525 568 c-15 -40 -40 -108 -56 -151 l-29 -78 37 3 c32 3 38 7 45
36 8 31 10 32 63 32 53 0 55 -1 63 -32 7 -29 13 -33 46 -36 33 -3 37 -1 32 15
-3 10 -25 76 -49 148 l-44 130 -40 3 -40 3 -28 -73z m83 -58 c10 -40 10 -40
-19 -40 -32 0 -34 4 -18 49 15 41 24 39 37 -9z"/>
<path d="M2717 618 c-9 -31 -1 -38 44 -38 l39 0 0 -120 0 -120 35 0 35 0 -6
84 c-4 46 -4 100 0 120 6 33 10 36 40 36 33 0 46 13 46 46 0 11 -22 14 -114
14 -108 0 -114 -1 -119 -22z"/>
<path d="M2992 490 l2 -150 33 0 33 0 0 150 0 150 -35 0 -34 0 1 -150z"/>
<path d="M3633 490 l2 -150 32 0 33 0 0 150 0 150 -35 0 -34 0 2 -150z"/>
<path d="M3785 490 l0 -150 98 0 c90 0 97 1 99 20 0 11 1 26 2 33 1 9 -17 11
-66 9 l-68 -4 0 37 0 38 55 -7 55 -6 0 35 0 35 -55 0 c-52 0 -55 1 -55 25 0
24 2 25 64 25 58 0 64 2 70 23 3 12 6 25 6 30 0 4 -46 7 -103 7 l-102 0 0
-150z"/>
<path d="M4040 490 l0 -150 36 0 37 0 -7 50 c-6 46 -5 50 14 50 14 0 30 -16
51 -50 30 -49 47 -58 83 -44 23 9 20 21 -16 66 -26 33 -29 43 -20 57 45 61 47
118 4 151 -20 16 -40 20 -103 20 l-79 0 0 -150z m138 61 c5 -31 -15 -51 -50
-51 -28 0 -29 1 -22 38 4 20 11 40 17 44 18 11 52 -8 55 -31z"/>
<path d="M4710 490 l0 -150 36 0 37 0 -6 60 -7 60 65 0 65 0 0 -60 0 -60 35 0
35 0 0 150 0 150 -35 0 -35 0 0 -54 c0 -50 -2 -54 -27 -59 -15 -3 -42 -3 -60
0 -33 6 -33 6 -33 59 l0 54 -35 0 -35 0 0 -150z"/>
<path d="M5928 490 l-3 -150 88 0 88 0 -3 33 c-3 31 -4 32 -56 35 l-53 3 7
115 7 114 -36 0 -36 0 -3 -150z"/>
<path d="M6162 498 c-29 -79 -52 -146 -52 -150 0 -5 15 -8 34 -8 31 0 34 3 40
35 l7 36 57 -3 c54 -3 57 -4 66 -35 8 -29 13 -33 42 -33 21 0 34 5 33 13 0 6
-22 73 -48 147 l-48 135 -39 3 -39 3 -53 -143z m117 -15 c1 -8 -11 -13 -29
-13 -35 0 -35 -2 -13 52 l17 42 12 -35 c7 -19 13 -40 13 -46z"/>
<path d="M6380 610 c0 -28 2 -30 40 -30 l40 0 0 -120 0 -120 35 0 35 0 0 120
0 120 40 0 c38 0 40 2 40 30 l0 30 -115 0 -115 0 0 -30z"/>
<path d="M6660 490 l0 -150 33 0 32 0 2 150 2 150 -35 0 -34 0 0 -150z"/>
<path d="M6810 490 l0 -151 98 3 97 3 0 30 0 30 -62 -3 -63 -4 0 37 0 38 50
-7 50 -7 0 36 0 35 -50 0 c-47 0 -50 2 -50 25 0 24 2 25 65 25 l65 0 0 30 0
30 -100 0 -100 0 0 -150z"/>
<path d="M7060 490 l0 -150 35 0 35 0 0 50 c0 68 24 68 65 0 30 -51 48 -60 86
-40 18 10 18 13 -16 57 -19 25 -35 49 -35 53 0 4 9 15 20 25 39 36 35 108 -9
142 -10 7 -49 12 -98 13 l-83 0 0 -150z m138 61 c5 -29 -15 -51 -44 -51 -21 0
-24 5 -24 39 0 23 5 41 13 44 22 8 52 -10 55 -32z"/>
<path d="M8045 490 l0 -150 33 0 32 0 0 93 0 92 61 -92 c58 -87 64 -93 95 -93
l34 0 0 113 c0 61 3 129 6 150 l7 37 -37 0 -36 0 0 -92 0 -93 -61 93 c-59 88
-63 92 -98 92 l-36 0 0 -150z"/>
<path d="M8380 490 l0 -150 35 0 35 0 0 60 0 60 50 0 c49 0 50 1 50 30 0 29
-1 30 -50 30 -49 0 -50 1 -50 30 l0 30 60 0 60 0 0 30 0 30 -95 0 -95 0 0
-150z"/>
<path d="M8610 490 l0 -150 33 0 33 0 2 150 1 150 -34 0 -35 0 0 -150z"/>
<path d="M9000 490 l0 -150 100 0 100 0 0 33 0 33 -65 -4 -65 -4 0 37 0 38 50
-6 c47 -6 50 -4 56 18 9 36 -2 45 -57 45 -46 0 -49 2 -49 25 0 24 2 25 65 25
l65 0 0 30 0 30 -100 0 -100 0 0 -150z"/>
<path d="M9242 520 c4 -114 5 -122 30 -147 51 -51 177 -40 209 18 6 12 13 72
16 135 l6 114 -39 0 -39 0 3 -96 c4 -112 -9 -144 -58 -144 -50 0 -63 33 -58
145 l4 95 -39 0 -39 0 4 -120z"/>
<path d="M9565 490 l0 -150 39 0 39 0 -7 50 c-6 46 -5 50 14 50 14 0 30 -16
51 -50 30 -49 47 -58 83 -44 23 9 20 21 -16 66 -26 33 -29 43 -20 57 45 61 47
118 4 151 -20 16 -40 20 -106 20 l-81 0 0 -150z m143 61 c5 -31 -15 -51 -50
-51 -28 0 -29 1 -22 38 4 20 11 40 17 44 18 11 52 -8 55 -31z"/>
<path d="M57 189 c-29 -17 -49 -68 -43 -105 7 -33 40 -68 77 -79 31 -10 87 14
106 46 l17 29 4793 0 4793 0 12 -25 c14 -32 72 -59 106 -50 65 16 98 86 68
143 -20 39 -44 52 -92 52 -29 0 -43 -7 -70 -35 l-33 -35 -4788 0 -4788 0 -28
35 c-24 30 -34 35 -70 35 -23 0 -50 -5 -60 -11z"/>
</g>
</svg>
